<svg width="213" height="186" viewBox="0 0 213 186" fill="none" xmlns="http://www.w3.org/2000/svg">
<rect x="106.55" y="34.2043" width="104" height="138.327" rx="15" transform="rotate(-0.623715 106.55 34.2043)" fill="#F3F4F6"/>
<rect x="-1.38108" y="56.2705" width="116" height="150.327" rx="21" transform="rotate(-29.4733 -1.38108 56.2705)" fill="#F3F4F6" stroke="#213744" stroke-width="12"/>
<g clip-path="url(#clip0_26_14)">
<path d="M89.0591 105.711C88.3905 108.958 86.6989 112.041 84.2141 114.541C81.7292 117.041 78.5716 118.836 75.1701 119.684C71.7686 120.532 68.2881 120.391 65.2013 119.28C62.1146 118.168 59.5713 116.141 57.9168 113.473C54.2292 107.525 56.6439 100.729 59.8627 91.6655C62.6695 83.7573 66.0912 74.1213 66.5993 61.83C77.8342 66.8412 87.9866 68.0619 96.3179 69.0649C105.867 70.2125 113.028 71.0723 116.716 77.0205C118.369 79.6889 119.054 82.8684 118.677 86.1273C118.299 89.3862 116.878 92.5664 114.606 95.236C112.334 97.9055 109.321 99.935 105.977 101.049C102.632 102.163 99.1189 102.307 95.9133 101.461C100.114 104.054 104.575 106.286 109.249 108.136C111.025 108.834 111.115 111.333 109.359 112.421L92.8956 122.628C91.1358 123.719 88.9376 122.527 89.1064 120.624C89.5285 115.614 89.5127 110.626 89.0591 105.711Z" fill="#213744"/>
</g>
<path d="M167.75 52C173.137 52 177.5 56.2243 177.5 61.4354C177.5 56.2243 181.863 52 187.25 52C192.637 52 197 56.2243 197 61.4354C197 69.2894 189.117 72.0598 178.456 84.5617C178.338 84.699 178.192 84.8094 178.027 84.8851C177.862 84.9608 177.682 85 177.5 85C177.318 85 177.138 84.9608 176.973 84.8851C176.808 84.8094 176.662 84.699 176.544 84.5617C165.883 72.0598 158 69.2894 158 61.4354C158 56.2243 162.363 52 167.75 52Z" fill="#213744"/>
<defs>
<clipPath id="clip0_26_14">
<rect width="79.0647" height="69.8978" fill="white" transform="translate(33 82.6601) rotate(-31.797)"/>
</clipPath>
</defs>
</svg>
